HIERARCHY
ROOT Hip
{
	OFFSET 0 0 0
	CHANNELS 6 Xposition Yposition Zposition Zrotation Yrotation Xrotation
	JOINT ShoulderCenter
	{
		OFFSET 0 43.63 0
		CHANNELS 3 Zrotation Yrotation Xrotation
		JOINT Head
		{
			OFFSET 0 18.49 0
			CHANNELS 3 Zrotation Yrotation Xrotation
			End Site
			{
				OFFSET 0.0 8.91 0.0
			}
		}
		JOINT ShoulderLeft
		{
			OFFSET -14 0 0
			CHANNELS 3 Zrotation Yrotation Xrotation
			JOINT ElbowLeft
			{
				OFFSET -25 0 0
				CHANNELS 3 Zrotation Yrotation Xrotation
				JOINT WristLeft
				{
					OFFSET -23 0 0
					CHANNELS 3 Zrotation Yrotation Xrotation
					End Site
					{
						OFFSET -8.32 0.0 0.0
					}
				}
			}
		}
		JOINT ShoulderRight
		{
			OFFSET 14 0 0
			CHANNELS 3 Zrotation Yrotation Xrotation
			JOINT ElbowRight
			{
				OFFSET 25 0 0
				CHANNELS 3 Zrotation Yrotation Xrotation
				JOINT WristRight
				{
					OFFSET 23 0 0
					CHANNELS 3 Zrotation Yrotation Xrotation
					End Site
					{
						OFFSET 8.32 0.0 0.0
					}
				}
			}
		}
	}
	JOINT HipLeft
	{
		OFFSET -9.52 0 0
		CHANNELS 3 Zrotation Yrotation Xrotation
		JOINT KneeLeft
		{
			OFFSET 0 -37.32 0
			CHANNELS 3 Zrotation Yrotation Xrotation
			JOINT AnkleLeft
			{
				OFFSET 0 -34.6 0
				CHANNELS 3 Zrotation Yrotation Xrotation
				End Site
				{
					OFFSET 0.0 0.0 8.91
				}
			}
		}
	}
	JOINT HipRight
	{
		OFFSET 9.52 0 0
		CHANNELS 3 Zrotation Yrotation Xrotation
		JOINT KneeRight
		{
			OFFSET 0 -37.32 0
			CHANNELS 3 Zrotation Yrotation Xrotation
			JOINT AnkleRight
			{
				OFFSET 0 -34.6 0
				CHANNELS 3 Zrotation Yrotation Xrotation
				End Site
				{
					OFFSET 0.0 0.0 8.91
				}
			}
		}
	}
}
MOTION
Frames: 34
Frame Time: 0.033333
-5.97821 -57.4604 -178.085 5.13883 -9.33249 -8.36793 3.34258 17.3388 26.2602 0 -8.53774e-07 0 58.9231 12.1729 -7.49044 2.51175e-06 51.3619 -6.86909e-07 0 0 0 -91.11 -9.73898 0.769343 -0.239314 -3.16559 0.085729 0 0 0 -5.43286 3.8978 14.1936 5.67131 -0.304111 -1.56532 0 0 0 -4.2881 5.60485 -20.4276 0.385538 10.1769 60.6286 0 0 -3.41509e-06 
-5.93141 -57.3522 -177.596 6.74 -12.0604 -9.90505 2.85571 21.3805 29.8464 0 0 0 60.33 13.3086 -11.3423 -6.05721e-06 58.2928 5.32387e-07 0 0 0 -89.878 -8.78752 1.69439 -1.95018 -9.37069 0.384134 0 0 0 -7.34605 4.3946 15.0141 5.94959 -0.209293 -1.00932 0 0 0 -5.04607 7.35376 -17.6456 -0.730282 11.6724 58.6738 0 0 0 
-5.4652 -57.5179 -177.56 7.47278 -11.3802 -9.89051 1.53579 20.68 29.4612 -4.26887e-07 -8.53774e-07 2.66804e-08 61.5176 13.7653 -11.8149 6.74607e-06 58.0711 -1.61127e-07 -3.4151e-06 8.53774e-07 -2.54444e-14 -88.669 -2.77475 1.26173 -2.2413 -13.876 0.455228 0 0 0 -8.11466 4.10321 14.9956 5.956 -0.208376 -1.10338 -2.66804e-08 -9.93923e-17 -4.26887e-07 -8.20285 6.542 -18.3288 0.449746 11.1687 60.2879 0 0 0 
-5.4652 -57.5179 -177.56 7.47278 -11.3802 -9.89051 2.00001 20.4341 29.7507 0 0 0 57.1668 12.648 -7.47632 5.14101e-07 59.8379 -1.67425e-06 0 0 0 -89.8059 -2.78496 1.29195 0.487679 -9.71555 -0.0324381 0 0 0 -7.42682 4.09265 15.1454 4.47817 -0.273536 -1.3438 0 0 0 -8.89119 4.58405 -14.8974 0.636551 11.9375 55.1783 -2.66804e-08 -7.95139e-16 -3.41509e-06 
-5.4652 -58.2841 -176.878 6.91954 -9.20486 -10.5856 2.55108 17.9932 30.5084 0 -8.53774e-07 0 61.2471 14.3108 -12.3819 -2.14977e-05 58.3465 -1.00459e-05 0 8.53774e-07 0 -90.8092 -2.60122 1.25132 1.56372 -9.84736 -0.0810925 0 0 0 -8.51431 3.19466 17.8534 9.24148 -0.364847 -5.41519 0 0 0 -9.41275 3.06773 -10.85 -0.577749 10.3302 48.2757 0 2.13443e-07 0 
-5.5688 -58.5486 -177.331 5.80473 -6.88558 -9.83181 3.88798 15.5287 28.3127 0 0 0 58.9577 11.5494 -8.68076 5.23533e-06 54.5673 2.70026e-06 0 0 0 -91.6454 -1.38254 1.62171 1.84979 -8.9432 -0.108282 0 0 0 -5.95344 2.70152 17.5638 6.27827 -0.387198 -5.39943 0 0 0 -8.74826 1.96283 -7.38874 -0.779779 9.19571 42.2019 0 0 0 
-5.5688 -58.7611 -177.284 5.10217 -7.0781 -9.1551 4.02316 14.4751 27.8369 0 0 0 68.2531 11.2793 -16.5255 -4.31918e-06 54.2293 -7.96679e-06 0 0 0 -92.3801 -4.67193 0.510734 5.77969 -2.48508 -0.176759 0 0 0 -5.44562 2.09383 16.8861 6.25635 -0.236861 -5.4902 0 0 0 -8.94852 1.03883 -2.7725 -1.05895 7.07653 32.0919 0 0 0 
-5.5688 -59.0128 -176.716 4.23882 -4.62569 -9.81814 1.88215 10.4693 27.9002 0 0 0 71.819 12.2114 -12.0884 -2.98721e-06 51.7482 -3.34663e-06 0 0 0 -88.4358 -5.14718 -2.15483 0.301672 -3.79972 -0.0409834 0 0 0 -4.37533 1.46216 17.644 5.77673 -0.00342806 -2.78996 0 0 -4.13547e-07 -9.58712 1.05367 3.91824 0.148818 4.08924 22.081 0 0 0 
-5.66197 -59.1165 -176.693 2.89908 -4.9963 -9.14699 3.168 9.26786 26.5491 0 0 0 66.2122 11.2731 1.68827 -4.50475e-06 40.1564 -3.4646e-06 0 0 0 -88.8982 -4.33476 -3.36375 0.0211766 -4.63954 -0.0328707 0 0 0 -2.35868 0.869302 14.8369 3.93586 0.00255104 2.56308 0 0 0 -8.12944 1.70507 9.2915 -0.482094 2.20973 12.2311 0 0 0 
-5.52625 -59.3329 -177.669 1.67543 0.483658 -8.36223 3.49091 2.27681 26.4747 0 0 0 71.6992 13.2306 0.850571 8.47392e-07 29.2089 -3.30832e-06 2.13443e-07 0 0 -87.9956 -11.3302 -4.95529 0.854713 -3.12612 -0.120203 0 0 0 -0.71631 0.211366 12.2186 4.68479 -0.193006 4.47739 0 0 0 -7.48749 1.10556 7.50451 1.2098 1.96704 14.4659 0 0 0 
-5.5002 -58.858 -177.263 -0.222156 2.82973 -9.11757 5.19775 -2.85038 27.1074 0 0 0 65.3955 13.721 27.858 -7.17187e-06 23.1127 -8.438e-06 0 0 0 -84.6675 -14.7538 -8.28454 -6.1373 -3.20728 0.0668622 0 0 0 0.158499 -0.671124 10.1735 7.0053 -1.13221 9.8048 0 0 0 -5.10596 1.51482 14.4384 0.425247 0.141712 1.4326 0 2.66804e-08 0 
-5.5002 -58.6433 -177.822 -1.30832 5.32908 -8.44404 4.89209 -7.29113 27.324 0 0 -1.70755e-06 68.2368 10.8374 29.8361 3.04076e-06 24.8215 -1.07925e-06 0 0 0 -83.0632 -18.9882 -11.2012 -7.35453 -3.72744 0.143802 0 0 0 0.818694 -1.46034 5.34203 7.59828 -2.59704 16.0986 0 0 0 -4.14721 0.782044 12.4277 1.45681 0.0994354 2.44069 0 2.66804e-08 0 
-5.69349 -58.1734 -177.414 -2.58674 7.8617 -9.17725 5.09982 -12.3197 27.5237 0 0 0 68.1799 11.153 32.1207 8.93543 17.8489 2.81822 0 0 0 -81.2177 -21.0765 -14.4124 -9.14984 -8.67515 0.47848 0 0 0 1.4391 -3.03477 0.0538327 7.18345 -5.85729 30.1211 0 0 0 -1.60732 -0.0550136 13.0264 0.328525 -0.0258466 2.75098 0 0 0 
-5.9308 -57.8623 -176.971 -4.36473 10.3347 -9.93005 7.30805 -15.5754 28.0561 0 0 0 72.1066 2.82476 32.1451 -1.14482 16.7636 2.30791 0 0 0 -81.9567 -21.434 -14.5923 -8.88999 -16.8012 0.760839 0 0 0 2.13142 -4.26477 -3.14806 7.38454 -7.61342 35.9932 2.66804e-08 0 0 1.11975 -0.794479 15.3429 -0.436608 -0.050551 1.12197 0 0 0 
-5.96328 -57.7561 -176.995 -5.10885 10.1285 -10.623 6.91168 -16.5954 29.0834 0 0 0 70.1995 3.02631 33.0281 3.20675 14.2984 2.63793 0 0 0 -80.8403 -21.1732 -5.89022 -1.13044e-05 -30.0998 -4.96821e-07 0 0 0 2.65616 -5.56654 -9.95342 4.60864 -8.04768 48.2492 0 0 0 1.77801 -1.11409 16.0043 -1.27791 -0.0540422 1.09666 0 0 0 
-5.96328 -57.3082 -176.633 -5.88354 12.3789 -11.338 7.4028 -19.0909 30.0374 -4.26887e-07 -1.06722e-07 -1.33402e-08 70.9893 -7.71984 30.9329 -2.10223 21.1023 4.45638 0 0 0 -73.1765 -23.3566 13.653 1.73483e-05 -35.3244 -9.10797e-06 0 -1.06722e-07 0 2.70347 -6.59382 -9.31827 4.71963 -9.63434 49.1346 -6.67011e-09 1.06722e-07 -3.41509e-06 2.87599 -2.16794 18.3808 -2.16214 0.274155 -3.1868 0 0 0 
-5.50133 -57.1072 -177.19 -5.45971 14.2355 -10.7152 6.88999 -20.9964 29.672 0 0 0 76.8433 -7.05191 31.2401 -9.60747 10.0068 1.69612 0 0 0 -71.8879 -22.8023 8.50573 -9.14219e-06 -40.9734 -2.29962e-07 0 0 0 1.76063 -7.27505 -11.5274 4.26688 -10.2349 51.5751 0 0 0 -0.109638 -1.76699 16.6603 1.28543 0.269623 -2.0924 0 0 0 
-5.61985 -56.9476 -177.225 -5.37738 14.1343 -10.7109 5.19309 -20.0997 31.3339 0 0 0 79.552 -7.8112 30.601 -11.6877 12.763 2.08549 0 0 0 -73.9224 -28.4127 -5.89363 6.6603e-06 -38.0215 -2.29472e-06 0 0 0 2.13885 -7.09623 -11.6225 4.26066 -9.86735 51.5598 0 0 0 -0.109395 -1.48708 16.4352 1.28986 0.199723 -1.7656 0 0 0 
-5.61985 -56.9476 -177.225 -5.32616 14.1449 -10.7118 5.08164 -20.0782 31.364 0 0 0 79.6081 -7.81316 30.6085 -12.3118 12.4094 1.89134 0 0 0 -73.5519 -28.3434 -7.34132 9.68809e-06 -42.5456 -1.93953e-06 0 0 0 2.06807 -7.00932 -11.6068 4.19204 -9.78209 51.5737 -2.66804e-08 -1.06722e-07 2.48481e-17 -0.160783 -1.48915 16.4486 0.630218 0.446383 -4.38257 4.26887e-07 -8.53774e-07 -3.18055e-15 
-5.824 -57.2385 -177.622 -4.8951 12.1013 -9.98982 5.7908 -18.3052 30.7547 0 0 0 78.9287 -7.77226 30.6157 -13.4064 11.7835 1.56942 0 0 0 -72.8477 -27.9914 -6.06982 -1.01538e-05 -42.03 2.4228e-07 0 0 0 2.60501 -5.12572 -10.4854 4.04823 -8.77277 47.7325 0 0 0 -0.468998 -0.920952 13.783 1.16178 -0.0112656 0.12946 0 0 0 
-5.824 -57.5493 -177.553 -4.68993 12.2344 -9.99622 5.56264 -17.8302 30.2414 0 0 0 78.1877 -9.21325 -4.89734 8.26802e-06 27.1089 1.99329e-06 0 0 0 -73.2907 -27.782 -2.01522 -7.77218e-06 -43.5987 -2.40863e-06 0 0 0 1.78392 -4.48205 -4.85421 7.399 -8.16926 37.0134 0 0 0 -1.1644 -0.448874 13.8519 2.53008 -0.00646985 0.0885687 0 0 0 
-5.824 -58.0155 -177.449 -4.26662 12.4498 -10.0294 4.48526 -17.9844 30.3833 0 0 0 75.3422 -0.614926 -4.49411 4.7146 15.2789 0.562541 0 0 0 -72.2988 -27.3741 -1.13002 -4.60718e-06 -42.3784 3.61737e-06 3.41509e-06 -5.08889e-14 1.70755e-06 1.5076 -3.37163 -3.08465 7.67219 -5.94149 32.0343 0 -4.26887e-07 0 -1.92726 0.0758217 12.0445 3.54904 -0.182603 4.41911 0 0 0 
-5.79769 -58.3262 -177.381 -3.82602 12.6468 -10.0398 3.51032 -17.9448 30.3537 0 0 0 69.1311 7.57119 -5.60423 13.883 7.18838 0.672528 0 0 0 -70.1347 -26.8849 17.0957 2.03426e-06 -41.7821 -4.43184e-06 3.20165e-06 -2.13443e-07 -5.96354e-15 2.3633 -1.72505 4.49167 7.18528 -3.25693 19.5616 -1.2424e-17 5.33609e-08 -2.66804e-08 -2.84407 0.484096 12.089 4.12276 -0.0628199 4.50344 0 0 0 
-5.92907 -58.9574 -177.753 -2.19463 5.25859 -8.4804 3.75022 -8.86838 28.5746 0 2.13443e-07 0 69.9708 6.88269 -6.70848 13.4761 13.9598 1.3668 0 0 0 -74.8814 -24.1065 13.7976 3.13532e-06 -42.54 -3.05288e-06 0 0 0 1.54984 -0.605668 5.68702 4.73601 -1.06454 14.3174 0 0 0 -4.06918 0.888533 10.1235 3.27248 0.398124 7.55182 3.37934e-15 -4.53567e-07 -8.53774e-07 
-6.09171 -59.2745 -178.195 -1.00428 2.82157 -8.45406 2.2854 -5.07105 28.2409 0 0 0 71.7276 11.0785 -7.75429 12.521 12.9611 1.35675 0 0 0 -84.1271 -25.4511 -6.05311 1.85945e-06 -34.2504 1.21383e-06 0 0 0 0.13269 0.323358 12.1674 5.22849 -0.042515 0.94771 0 0 0 -5.01706 0.394051 5.82201 3.07786 1.32926 16.8202 0 0 0 
-6.13599 -59.6437 -178.113 0.116325 3.04008 -7.09492 0.0505087 -2.03996 24.5738 0 0 0 74.7102 3.68171 18.8646 -2.13249e-06 27.7969 -2.28673e-06 0 0 0 -85.4615 -23.591 -8.52289 3.20435e-06 -26.3869 -3.38195e-06 0 0 0 -1.68339 0.508439 13.1924 6.04046 0.0635717 -1.51535 0 0 0 -6.29004 -0.0604011 2.69631 3.20168 1.5488 18.6798 0 0 0 
-6.29863 -59.6437 -178.113 0.708577 3.17928 -6.32772 0.785905 -2.12467 21.5903 0 0 0 75.1611 -2.18594 8.43791 1.97786e-05 41.0358 5.57875e-06 0 0 0 -83.4193 -21.2666 -9.12238 -9.05585 -16.9922 1.6966 0 0 0 -3.3248 0.403859 14.4784 8.34411 0.412979 -6.44006 0 0 0 -6.0136 -0.512499 -1.93817 2.14443 2.0878 24.4249 6.36111e-15 -4.26887e-07 -1.70755e-06 
-6.66819 -59.7573 -178.6 1.33831 0.559477 -6.27302 3.12419 1.23722 22.0418 2.66804e-08 1.55301e-18 -6.67011e-09 74.0291 1.66114 7.09337 -1.99288e-05 36.9301 -1.0255e-05 1.06722e-07 1.70755e-06 1.59028e-15 -87.8582 -22.1958 -6.8283 -3.48084 -10.1029 0.300724 0 0 0 -3.59188 0.554679 12.6074 8.75493 0.215812 -4.43573 0 0 0 -6.21008 -0.86642 -6.15901 1.95237 3.40914 32.5646 0 0 0 
-7.16479 -59.5437 -178.135 1.2123 -2.29296 -6.93802 5.31854 3.06334 22.9656 0 0 0 72.9453 1.7608 2.76708 1.45066e-06 43.5418 -1.25933e-06 0 0 0 -90.7121 -22.0545 -6.67306 -7.63248 -5.27718 0.626053 0 0 0 -3.10438 0.767102 13.1963 7.82427 0.0606101 -1.64295 0 0 0 -4.25917 -0.177685 -7.6127 0.436313 3.69139 35.9928 7.95139e-16 -5.33608e-08 -1.70755e-06 
-7.16479 -59.3866 -178.17 1.6494 -2.15062 -6.91419 4.42519 3.16593 22.9187 -3.10601e-18 5.33609e-08 -6.67011e-09 76.533 1.96826 -0.286376 -1.84656e-06 46.3046 -7.89617e-07 0 0 0 -92.882 -15.7574 -5.8169 -5.37346 -7.74917 0.855736 0 0 0 -3.49027 0.955502 13.1616 7.81667 0.0372486 -1.68198 -8.66577e-16 2.40124e-07 -4.13547e-07 -4.6426 -0.491707 -7.62594 1.13594 3.71679 36.452 2.13443e-07 0 0 
-7.65792 -59.4372 -177.646 1.48855 -4.97251 -7.67641 4.88161 5.66569 22.9116 0 0 0 77.5848 1.41338 -0.862931 -5.46126e-06 46.231 -7.90098e-06 -2.98821e-06 0 0 -92.681 -11.714 -6.17745 -5.82662 -10.7815 1.19705 0 0 0 -2.88753 1.49343 14.0165 6.66823 -0.0318739 -1.67284 0 0 0 -2.19645 0.550299 -5.0619 -0.694932 4.38027 34.5117 0 0 0 
-7.82056 -59.5943 -177.612 1.3502 -4.98897 -7.69596 4.92942 5.69041 22.9383 0 0 0 76.7239 1.37152 3.91199 -5.00292e-07 46.7345 -2.16156e-07 2.54444e-14 -1.70755e-06 -1.70755e-06 -92.5814 -11.719 -6.1867 -5.14551 -6.38436 0.635063 0 0 0 -2.1653 1.21103 14.1073 5.81181 -0.0113753 -1.72047 4.26887e-07 -4.26887e-07 1.33402e-08 -1.58753 -0.120589 -3.12981 0.803203 2.37174 31.3399 0 0 0 
-7.9337 -59.7005 -177.588 1.22181 -5.04074 -8.33844 5.66378 6.84205 24.1156 -2.66804e-08 -3.97569e-16 -1.70755e-06 76.6781 1.52397 2.54948 -5.00292e-07 46.7345 -2.16156e-07 2.54444e-14 -1.70755e-06 -1.70755e-06 -92.9391 -11.5283 -4.83834 -3.95345 -11.2512 0.883388 0 0 0 -1.413 1.04308 14.8187 4.87857 -0.00183696 -2.02661 0 0 0 -1.58187 -0.175977 -0.626954 1.30578 1.5848 26.6741 0 0 0 
-7.9337 -59.7514 -177.577 1.13623 -5.07344 -8.31618 5.75493 7.18847 22.2386 0 0 0 76.0723 -0.878136 4.31636 1.18083e-05 44.026 1.09033e-06 0 0 0 -90.6641 -10.0395 -5.00833 -7.382 -10.3823 1.05433 0 0 0 -1.34786 0.973204 14.803 4.88149 0.00767707 -2.01873 -4.26887e-07 0 0 -1.03659 0.170359 1.27143 0.243388 1.52062 22.3801 0 0 0 
